<svg xmlns="http://www.w3.org/2000/svg" viewBox="0 0 88.2 88.3">
  <title>
    globe-logo
  </title>
  <g data-name="Layer 2">
    <g data-name="Layer 1">
      <path d="M42.6 1.5h3v85.2h-3z"/>
      <path d="M44.1 88.3C32.5 88.3 20 76.7 20 44.2S32.5 0 44.1 0s24.1 11.6 24.1 44.1-12.5 44.2-24.1 44.2zm0-85.3C31.3 3 23 19.2 23 44.2s8.3 41.1 21.1 41.1 21.1-16.1 21.1-41.1S56.9 3 44.1 3z"/>
      <path d="M1.5 42.4h85.2v3H1.5zM7 21.2h74.1v3H7zM7 63.6h74.1v3H7z"/>
      <path d="M44.1 88.3a44.15 44.15 0 1 1 44.1-44.2 44.17 44.17 0 0 1-44.1 44.2zm0-85.3a41.15 41.15 0 1 0 41.1 41.2A41.18 41.18 0 0 0 44.1 3z"/>
    </g>
  </g>
</svg>
