<svg xmlns="http://www.w3.org/2000/svg" viewBox="0 0 6740.18 6542.6">
  <defs>
    <style>
      .cls-2{fill:#002d69}.cls-3{fill:#c6ab38}.cls-4,.cls-7{fill:none;stroke:#c9a200;stroke-width:100px}.cls-4{stroke-miterlimit:10}.cls-7{stroke-linecap:square;stroke-miterlimit:1}
    </style>
  </defs>
  <g id="Layer_1" data-name="Layer 1">
    <ellipse cx="3407.79" cy="3265.79" rx="3332.39" ry="3276.81" fill="#fff"/>
    <path class="cls-2" d="M4476.62 3083.22c33.23-13.3 59.82-24.1 90.56 5a84.74 84.74 0 0 1 17.45 24.93c10 25.75-1.66 49-31.57 50.68-24.1.83-45.7-8.31-61.49-1.66-14.12 6.64-24.09 10.8-37.38-5-10-10.8-10.8-34.89-6.65-49 5.82-20.8 16.62-19.97 29.08-24.95zM4162.56 2873c-1.66 0-6.64 34.89-6.64 40.71 7.48 5 18.28 24.09 10 42.37 43.2-4.16 67.3-7.48 100.53 24.92.83 0 6.65 5.82 7.48 5.82 10 7.48 24.92-49 26.58-55.67 1.66-7.47 9.14-10-8.31-12.46-30.74-5-65.63-49-59.82-51.51z"/>
    <path class="cls-2" d="M4162.56 2826.49l44.87-3.32c85.57-8.31 42.37 32.4 96.38 50.68 9.13 3.32 34.06 16.61 38.21 23.26 7.48-5 5.82 29.91 1.67 51.51-17.45 87.24-95.55 100.53-95.55 76.44-26.59-17.45-16.62-29.91-68.13-24.1-24.92 2.5-71.45 7.48-74.77-25.75-.83-14.13 7.47-23.27 14.95-32.4-21.6-25.76-4.15-45.7-5-74.78-1.64-34.89 17.46-39.03 47.37-41.54zM3745.49 2905.42h-.83c24.92 26.58-1.67 38.22 50.68 67.3 38.22 21.6 63.14-5.82 69-5.82 3.32-5 1.66-21.6.83-28.25-64.85-6.65-61.52 15.79-119.68-33.23zM3715.58 2882.15l-.83 3.33c5.81 3.32 14.95 8.31 19.94 10.8-6.69-4.99-12.47-9.97-19.11-14.13zM3546.09 2830.64c29.08-5 54.83 21.61 64.8 23.27.83.83 24.1-12.47 29.91-13.3-49.8-20.77-48.19-9.97-94.71-9.97zM3487.93 2881.32l17.45 19.11c7.47-6.64-9.14-58.15 37.38-69.79-33.23 7.48-58.99 19.94-54.83 50.68z"/>
    <path class="cls-2" d="M3467.16 2828.15c31.57-52.34 122.13-55.66 174.47-36.56 103 38.22 136.26 87.24 158.69 98.87 16.62 8.31 86.41-14.12 105.52 25.76 9.14 19.11 10 56.5-3.33 76.44 12.47 7.47-63.14 42.37-103.85 31.57-23.26-6.65-51.51-26.59-68.13-44-5-5.81-21.6-42.37-19.94-44.86-.83 0-9.14-5-9.14-4.16-19.94-10-28.25-18.27-30.74-40.71-39.88-16.61-32.4 22.44-75.6 6.65 0 0-36.56-19.94-40.71-21.6-2.5 19.94 7.47 50.68-38.22 72.28-34.9 17.45-64-1.66-56.5-5.82-4.15-6.64-5-30.74-1.66-29.91 7.48-30.78-13.29-45.73 9.14-83.95zM2631.34 6475.5c-75.6-33.23 42.37-27.42 60.65-22.43l113.83 1.66c196.9 5.82 348.95 23.26 560.81 14.13 117.14-5 211-14.13 315.71-35.73 2.5-.83-76.43-337.32-48.18-414.59 34.06-95.54 79.76-195.24 120.47-295.77 43.2-107.18 118.81-307.41 151.21-409.6 22.43-73.95 79.76-275 2.49-323.2-51.51-31.57-138.75-86.4-186.94-125.45-54-42.37-59-65.64-78.93-118.81-20.77-54.83-75.6-188.6-104.68-236-28.25-44.86-93.88-99.7-136.26-138.74-21.6-19.11-5-76.44-5-76.44 11.63-76.44 33.23-231 77.26-305.75 7.48-13.29 128.78-108 128.78-108 5.82-3.32 5.82-2.49 6.65-17.44 0-16.62-11.63-210.2-27.42-206-6.64-22.43-14.12-41.54-18.28-54.83-8.3-20.77-59.82-5.82-59.82-5.82-47.35 7.48-76.43 18.28-130.44 5-55.66-13.3-106.34-48.19-154.53-80.6l-84.72-53.2c-19.94-11.63-19.94-11.63-25.75-35.72-12.46-53.18-21.6-78.93-73.94-105.52-48.19-24.09-103-40.71-155.37-50.68-89.73-16.62-88.9-33.23-139.58-93.88-58.16-68.13-137.92-6.65-241.77-51.52-25.76-10.8-43.21-25.75-78.93-41.54-70.62-31.57-121.3-70.62-185.28-120.47-95.54-74.77-117.14-105.51-145.39-222.66-24.1-99.7-46.53-137.92-90.56-232.63-34.07-73.95-29.91-67.3-69.79-126.29 39 88.07 56.49 128.78 63.14 225.15 5 68.13 5 71.46-51.51 28.25-97.21-70.62-105.52-113.82-157-212.69-55.66-105.52-28.25-77.27-41.54-181.12-12.46-96.38-39-127.12-69-213.52-40.71-116.32-75.6-309.07-39-428.71 37.39-121.31 149.55-255.07 189.43-382.19 21.6-66.46 73.11-333.16 80.59-400.46 8.31-73.11-5.81-137.08-92.22-122.13l-78.1 23.26c-58.16 15-201.06 43.21-250.91 2.5-44.86-36.56-12.46-95.55-9.14-93.06 29.91-39.88 120.47-55.66 169.49-96.37 43.2-36.56 78.93-83.92 132.93-125.46-47.35 23.26-111.33 60.65-150.38 13.29-202.72 127.95-393.81 280.83-570.78 457-1300.25 1301.08-1300.25 3410.57 0 4710.82 451.09 451.1 999.44 746.04 1577.7 883.96z"/>
    <path class="cls-2" d="M6264.57 1520.42c96.37 178.63 174.47 363.91 232.63 544.2 220.17 685.43 102.19 1994 97.21 1696.55-9.14-9.13-54-59.82-42.37-151.21-.83-268.36 100.53-293.28-96.38-432-64.81-45.69-119.64-145.39-184.44-211-41.55-42.37-39.05-62.31-52.35-118-6.64-29.08-51.51-352.27-72.28-344-59-169.49-63.14-200.23-81.42-383-23.26-233.46-60.65-255.06-126.29-456.95-24.09-78.1-36.55-84.75-91.39-144.57-58.16-69-118-160.35-178.63-218.51-44.86-42.37-47.36-58.16-47.36-121.3-.83-86.4-10.8-74.77-76.43-130.44-80.59-70.62-81.42-93.05-191.92-123.79-118-34.07-125.46-59-201.07-147.06-26.58-29.91-57.32-56.5-77.26-86.41-24.93-35.72-31.57-63.14-69-104.68-58.12-64.83-185.24-155.39-262.5-200.25l-344.8-192.75c-33.23-21.61-52.34-36.56-99.7-55.67-50.68-19.11-129.61-39.88-186.11-42.37-98-4.16-147.88 54-187.76-5.82 0 0-16.62-34.89-54-48.19-44-15-147.89-21.6-207.71-29.91C3566.86 0 3465.5 0 3345 0c-90.56 0-275.84-.83-343.14 8.31C2899.7 21.6 2574 118 2462.68 157c-48.19 17.44-140.41 53.17-145.39 76.43-2.5 10 25.75 37.39 37.38 51.52 20.78 24.09 36.56 53.17 67.3 68.12 32.4 15.79 107.18 22.44 154.54 32.41 49.85 10 50.68 9.14 78.93-23.27 13.29-14.95 187.76-142.07 198.56-114.65 97.21-35.73 140.42-56.5 214.36-9.14 29.08 19.11 91.39 42.37 125.45 25.75 55.67-26.58 75.61-103 167.83-114.65 19.11-2.49 209.37 3.32 207.71-1.66 103-15.79 149.55-55.67 277.5-33.24C3925.78 128 4117.7 186.94 4175 240.11c17.44 15.79 25.75 30.74 34.06 49.85 9.14 21.6 6.65 19.94 32.4 19.11 39.05-1.66 69.79 2.49 96.38 39.88 61.48 83.91 10 203.55 96.38 376.37 17.44 34.06 40.71 76.43-2.5 95.54-37.38 15.79-123.79-8.31-164.5-24.09-189.43-73.12-384.68-273.35-540.87-406.28-54-45.69-61.48-49-123.8-48.19-64.8 1.66-94.71-4.15-150.38-33.23 12.47 78.1 237.62 172 320.7 243.43 53.18 45.7 67.3 109.67 67.3 172.82 0 0-4.15 39.88-6.64 44.86-.84 1.66-43.21 77.27-34.07 83.08 29.08 20.77 85.58-29.91 146.23-4.15 60.65 26.59 113.82 115.49 195.24 165.34 10 5.81 118 69 118.81 69 4.16 4.16 60.65 73.95 61.48 73.95 3.33 7.48 70.62 55.66 70.62 55.66 78.93 30.74 130.44 22.44 135.43 126.29 4.15 89.73-23.26 152-123.79 162.84-86.41 9.14-166.17-22.43-194.42-106.34-19.11-55.67-3.32-88.07-73.11-61.48-126.29 47.35 18.28 86.4 46.52 143.73 15.79 32.4.84 80.59-4.15 126.29-5 42.37-10 85.57-42.37 94.71-54.84 15.79-127.95-102.19-203.56-38.22-17.44 14.13-33.23 38.22-49 62.31-52.34 80.6-68.12 79.76-110.5 136.26-82.25 106.35-47.35 207.71-107.17 291.62-49 69.79-147.89 93.89-173.65 123.8-39.88 46.52 10.8 292.45-35.72 338.15-29.91 29.91-64-4.16-81.42-31.58-46.53-71.45-54.84-127.94-162-141.24-86.4-10.8-185.27 10.8-268.35 12.47-75.61 1.66-221.84-28.25-284.15 15-32.4 22.43-44 70.62-52.34 108.84-20.77 93.05-31.57 172 1.66 262.54 24.93 71.45 58.16 100.53 137.92 100.53 62.31.83 142.07-19.11 181.12-68.13 28.25-36.55 26.59-76.43 97.21-97.2 56.49-16.62 98-2.5 98 60.65l-12.46 110.5c-10 90.56-12.46 108.84-59 172 36.56 19.11 179.46-3.32 230.14 13.29 64.81 20.77 24.93 64 18.28 140.41-4.15 50.68 3.33 119.64 15.79 168.66 10.8 43.21 143.73 54 183.61 59.82 35.73 5 143.74 13.3 172 6.65 39.05-9.14 52.35-109.67 177-137.92 21.6-5 255.07 18.28 255.07 18.28 55.66 15.79 132.1 39.05 186.93 24.92 89.73-23.26 108-58.15 211 4.16 3.33 2.49 39.88 27.42 39.88 27.42l118.81 106.34c88.07 75.61 83.09 78.93 196.08 81.42l92.22-1.66c29.08-1.66 53.18-3.32 79.76 30.74 48.19 60.65 59.82 164.51 176.14 209.37 48.19 19.11 124.62 27.42 165.33 50.68 29.91 16.62 34.07 37.39 44.87 42.38s69.79 10.8 99.7 19.11c46.52 12.46 93.05 35.72 142.9 59 63.14 29.08 95.55 51.52 108.84 127.95 19.94 112.16-39 212.7-98.87 300.76-57.33 83.92-90.56 152.88-118 252.58-48.18 177 4.16 249.25-219.34 369.72-181.12 97.2-267.52 98-379.69 291.62-68.12 118-87.23 262.54-228.48 314.05-78.92 28.25-188.59 12.47-226 44-19.94 16.61-28.25 93.88-64 115.48-24.92 15.79-116.31 35.73-152 41.54-88.9 15.79-69.79 21.61-93.88 69.79-5.82 10.8-49.85 56.5-54 50.68-124.62 88.9-113.82 125.46-179.46 229.31-39 62.32-45.69 91.4 42.38 117.15 98.87 29.08 186.1.83 289.13-10 30.74-5 99.7-33.23 107.17 1.66 7.48 34.07-100.53 49-134.59 59.82-201.06 63.15-364.74 109.67-542.53 137.09 747.74-69 1477.21-388.83 2049.66-962.1 1105.02-1104.25 1271.19-2790.84 500.18-4071.15z"/>
  </g>
  <g id="network">
    <circle class="cls-3" cx="6311.46" cy="2469.7" r="234.09"/>
    <circle class="cls-3" cx="5347.57" cy="4614.07" r="311.97"/>
    <circle class="cls-3" cx="4528.66" cy="5687.99" r="234.09"/>
    <circle class="cls-3" cx="3764.66" cy="4863.4" r="311.97"/>
    <circle class="cls-3" cx="2150.24" cy="2760.91" r="311.97"/>
    <circle class="cls-3" cx="1966.5" cy="1332.85" r="311.97"/>
    <circle class="cls-3" cx="3805.47" cy="1533.57" r="311.97"/>
    <circle class="cls-3" cx="5640.16" cy="1020.88" r="234.09"/>
    <circle class="cls-3" cx="787.53" cy="4985.04" r="234.09"/>
    <path class="cls-4" d="M6726.45 3565.15q-2.86 25-7.47 49.43"/>
    <path d="M6693.86 3710.14c-463.68 1364.94-5122.63 1470.48-5897.4 1232.1" stroke-dasharray="98.89 98.89" stroke-miterlimit="10" fill="none" stroke="#c9a200" stroke-width="100"/>
    <path class="cls-4" d="M749.94 4925.55c-18.47-7.87-33-16.05-43.41-24.51 0 0 5.43-16.41 16.76-47.11"/>
    <path d="M759.43 4760.52c260.19-646.71 1525.4-3322.64 4781.32-3728" stroke-dasharray="100.16 100.16" stroke-miterlimit="10" fill="none" stroke="#c9a200" stroke-width="100"/>
    <path class="cls-4" d="M5590.48 1026.48q24.77-2.88 49.68-5.6"/>
    <path class="cls-7" d="M1966.5 1332.85s-1.89 4.74-4.94 14.15"/>
    <path d="M1926.4 1524.86c-57.81 523.16 90.22 2094.23 3127.44 4452.53" stroke-dasharray="30.26 181.58" stroke-miterlimit="1" stroke-linecap="square" fill="none" stroke="#c9a200" stroke-width="100"/>
    <path class="cls-7" d="M5125.71 6032.93l11.89 9.14"/>
    <path d="M6444.55 1914.54S6011.4 4777 3714.75 6553.6" stroke-dasharray="50 180" stroke-linecap="square" stroke-miterlimit="10" fill="none" stroke="#c9a200" stroke-width="100"/>
    <path class="cls-4" d="M6726.45 3565.15s-17.28-1.15-49.84-3.91"/>
    <path d="M6575.71 3551.87C5759.19 3470.24 1893.31 2956.22 1633 524" stroke-dasharray="101.34 101.34" stroke-miterlimit="10" fill="none" stroke="#c9a200" stroke-width="100"/>
    <path class="cls-4" d="M1628.12 473.58q-2.11-24.79-3.75-49.86M78.4 3406s13.67-10.77 38.95-31.35"/>
    <path d="M192.79 3312.33c445.82-373.06 2052.39-1793.88 2256.85-3057.24" stroke-dasharray="97.87 97.87" stroke-miterlimit="10" fill="none" stroke="#c9a200" stroke-width="100"/>
    <path class="cls-4" d="M2456.79 206.68q3.33-24.87 5.89-49.65"/>
  </g>
</svg>
